<svg xmlns="http://www.w3.org/2000/svg" viewBox="0 0 62.73 44.26"><defs><style>.a{fill:none;stroke:#fff;stroke-linecap:round;stroke-miterlimit:10;stroke-width:7px;}</style></defs><path class="a" d="M28.5,31.5c.35-6.56-4-12.14-11.42-12.54C8.5,18.5,3.32,25,4.23,31.81c.6,4.51,4.45,8.44,9.64,9.63H52.41A12.54,12.54,0,0,0,58.83,35a12.1,12.1,0,0,0,0-9.64A12.15,12.15,0,0,0,47.5,18.5" transform="translate(-0.63 -0.68)"/><path class="a" d="M43.26,28.6C47.59,22.15,47.83,16,44.5,10.5c-4.76-7.83-18-9-24,0-2.86,4.28-3,7.54-3,8" transform="translate(-0.63 -0.68)"/></svg>